<mxfile host="app.diagrams.net" agent="Mozilla/5.0 (Windows NT 10.0; Win64; x64) AppleWebKit/537.36 (KHTML, like Gecko) Chrome/141.0.0.0 Safari/537.36" version="28.2.8">
  <diagram name="Página-1" id="imYS4RgtvVxFy-9Kshcz">
    <mxGraphModel dx="872" dy="439" grid="1" gridSize="10" guides="1" tooltips="1" connect="1" arrows="1" fold="1" page="1" pageScale="1" pageWidth="827" pageHeight="1169" math="0" shadow="0">
      <root>
        <mxCell id="0" />
        <mxCell id="1" parent="0" />
        <mxCell id="LPedVDwC0ZXYi0vRmJ3a-1" value="" style="rounded=0;whiteSpace=wrap;html=1;" vertex="1" parent="1">
          <mxGeometry x="250" y="40" width="360" height="430" as="geometry" />
        </mxCell>
        <mxCell id="LPedVDwC0ZXYi0vRmJ3a-2" value="Huésped" style="shape=umlActor;verticalLabelPosition=bottom;verticalAlign=top;html=1;outlineConnect=0;" vertex="1" parent="1">
          <mxGeometry x="150" y="280" width="30" height="60" as="geometry" />
        </mxCell>
        <mxCell id="LPedVDwC0ZXYi0vRmJ3a-4" value="Personal de Servicio" style="shape=umlActor;verticalLabelPosition=bottom;verticalAlign=top;html=1;outlineConnect=0;" vertex="1" parent="1">
          <mxGeometry x="150" y="110" width="30" height="60" as="geometry" />
        </mxCell>
        <mxCell id="LPedVDwC0ZXYi0vRmJ3a-5" value="Realizar Check-in Digital" style="ellipse;whiteSpace=wrap;html=1;" vertex="1" parent="1">
          <mxGeometry x="348" y="170" width="130" height="40" as="geometry" />
        </mxCell>
        <mxCell id="LPedVDwC0ZXYi0vRmJ3a-7" value="" style="endArrow=classic;html=1;rounded=0;exitX=0.5;exitY=0.5;exitDx=0;exitDy=0;exitPerimeter=0;entryX=0.051;entryY=0.735;entryDx=0;entryDy=0;entryPerimeter=0;" edge="1" parent="1" source="LPedVDwC0ZXYi0vRmJ3a-2" target="LPedVDwC0ZXYi0vRmJ3a-5">
          <mxGeometry width="50" height="50" relative="1" as="geometry">
            <mxPoint x="310" y="210" as="sourcePoint" />
            <mxPoint x="360" y="160" as="targetPoint" />
          </mxGeometry>
        </mxCell>
        <mxCell id="LPedVDwC0ZXYi0vRmJ3a-9" value="Controlar Acceso a Habitaciones" style="ellipse;whiteSpace=wrap;html=1;" vertex="1" parent="1">
          <mxGeometry x="330" y="120" width="130" height="40" as="geometry" />
        </mxCell>
        <mxCell id="LPedVDwC0ZXYi0vRmJ3a-10" value="Gestionar Actividades Recreativas" style="ellipse;whiteSpace=wrap;html=1;" vertex="1" parent="1">
          <mxGeometry x="310" y="220" width="130" height="40" as="geometry" />
        </mxCell>
        <mxCell id="LPedVDwC0ZXYi0vRmJ3a-11" value="Gestionar Perfiles de Huéspedes" style="ellipse;whiteSpace=wrap;html=1;" vertex="1" parent="1">
          <mxGeometry x="413" y="250" width="130" height="40" as="geometry" />
        </mxCell>
        <mxCell id="LPedVDwC0ZXYi0vRmJ3a-12" value="Administrador" style="shape=umlActor;verticalLabelPosition=bottom;verticalAlign=top;html=1;outlineConnect=0;" vertex="1" parent="1">
          <mxGeometry x="660" y="230" width="30" height="60" as="geometry" />
        </mxCell>
        <mxCell id="LPedVDwC0ZXYi0vRmJ3a-13" value="" style="endArrow=classic;html=1;rounded=0;exitX=0.5;exitY=0.5;exitDx=0;exitDy=0;exitPerimeter=0;entryX=0;entryY=0.5;entryDx=0;entryDy=0;" edge="1" parent="1" source="LPedVDwC0ZXYi0vRmJ3a-2" target="LPedVDwC0ZXYi0vRmJ3a-9">
          <mxGeometry width="50" height="50" relative="1" as="geometry">
            <mxPoint x="370" y="240" as="sourcePoint" />
            <mxPoint x="340" y="160" as="targetPoint" />
          </mxGeometry>
        </mxCell>
        <mxCell id="LPedVDwC0ZXYi0vRmJ3a-14" value="" style="endArrow=classic;html=1;rounded=0;exitX=0.5;exitY=0.5;exitDx=0;exitDy=0;exitPerimeter=0;entryX=0;entryY=0.5;entryDx=0;entryDy=0;" edge="1" parent="1" source="LPedVDwC0ZXYi0vRmJ3a-2" target="LPedVDwC0ZXYi0vRmJ3a-10">
          <mxGeometry width="50" height="50" relative="1" as="geometry">
            <mxPoint x="225" y="130" as="sourcePoint" />
            <mxPoint x="350" y="170" as="targetPoint" />
          </mxGeometry>
        </mxCell>
        <mxCell id="LPedVDwC0ZXYi0vRmJ3a-15" value="" style="endArrow=classic;html=1;rounded=0;entryX=0;entryY=0.5;entryDx=0;entryDy=0;" edge="1" parent="1" source="LPedVDwC0ZXYi0vRmJ3a-4" target="LPedVDwC0ZXYi0vRmJ3a-9">
          <mxGeometry width="50" height="50" relative="1" as="geometry">
            <mxPoint x="370" y="240" as="sourcePoint" />
            <mxPoint x="360" y="180" as="targetPoint" />
          </mxGeometry>
        </mxCell>
        <mxCell id="LPedVDwC0ZXYi0vRmJ3a-16" value="" style="endArrow=classic;html=1;rounded=0;entryX=0.965;entryY=0.425;entryDx=0;entryDy=0;entryPerimeter=0;" edge="1" parent="1" source="LPedVDwC0ZXYi0vRmJ3a-12" target="LPedVDwC0ZXYi0vRmJ3a-11">
          <mxGeometry width="50" height="50" relative="1" as="geometry">
            <mxPoint x="370" y="240" as="sourcePoint" />
            <mxPoint x="420" y="190" as="targetPoint" />
          </mxGeometry>
        </mxCell>
        <mxCell id="LPedVDwC0ZXYi0vRmJ3a-17" value="Gestionar Permisos de Acceso" style="ellipse;whiteSpace=wrap;html=1;" vertex="1" parent="1">
          <mxGeometry x="410" y="310" width="130" height="40" as="geometry" />
        </mxCell>
        <mxCell id="LPedVDwC0ZXYi0vRmJ3a-18" value="" style="endArrow=classic;html=1;rounded=0;entryX=0.979;entryY=0.399;entryDx=0;entryDy=0;entryPerimeter=0;" edge="1" parent="1" source="LPedVDwC0ZXYi0vRmJ3a-12" target="LPedVDwC0ZXYi0vRmJ3a-17">
          <mxGeometry width="50" height="50" relative="1" as="geometry">
            <mxPoint x="370" y="240" as="sourcePoint" />
            <mxPoint x="420" y="190" as="targetPoint" />
          </mxGeometry>
        </mxCell>
        <mxCell id="LPedVDwC0ZXYi0vRmJ3a-19" value="Consultar Auditoría del Sistema" style="ellipse;whiteSpace=wrap;html=1;" vertex="1" parent="1">
          <mxGeometry x="400" y="360" width="150" height="40" as="geometry" />
        </mxCell>
        <mxCell id="LPedVDwC0ZXYi0vRmJ3a-20" value="Gestionar Reportes y Análisis" style="ellipse;whiteSpace=wrap;html=1;" vertex="1" parent="1">
          <mxGeometry x="390" y="420" width="130" height="40" as="geometry" />
        </mxCell>
        <mxCell id="LPedVDwC0ZXYi0vRmJ3a-21" value="" style="endArrow=classic;html=1;rounded=0;entryX=1;entryY=0.5;entryDx=0;entryDy=0;" edge="1" parent="1" source="LPedVDwC0ZXYi0vRmJ3a-12" target="LPedVDwC0ZXYi0vRmJ3a-19">
          <mxGeometry width="50" height="50" relative="1" as="geometry">
            <mxPoint x="370" y="350" as="sourcePoint" />
            <mxPoint x="420" y="300" as="targetPoint" />
          </mxGeometry>
        </mxCell>
        <mxCell id="LPedVDwC0ZXYi0vRmJ3a-23" value="" style="endArrow=classic;html=1;rounded=0;entryX=1;entryY=0.5;entryDx=0;entryDy=0;" edge="1" parent="1" source="LPedVDwC0ZXYi0vRmJ3a-12" target="LPedVDwC0ZXYi0vRmJ3a-20">
          <mxGeometry width="50" height="50" relative="1" as="geometry">
            <mxPoint x="610" y="310" as="sourcePoint" />
            <mxPoint x="620" y="190" as="targetPoint" />
          </mxGeometry>
        </mxCell>
        <mxCell id="LPedVDwC0ZXYi0vRmJ3a-25" value="Autenticarse en el Sistema" style="ellipse;whiteSpace=wrap;html=1;" vertex="1" parent="1">
          <mxGeometry x="330" y="70" width="130" height="40" as="geometry" />
        </mxCell>
        <mxCell id="LPedVDwC0ZXYi0vRmJ3a-26" value="" style="endArrow=classic;html=1;rounded=0;entryX=0;entryY=0.5;entryDx=0;entryDy=0;" edge="1" parent="1" source="LPedVDwC0ZXYi0vRmJ3a-2" target="LPedVDwC0ZXYi0vRmJ3a-25">
          <mxGeometry width="50" height="50" relative="1" as="geometry">
            <mxPoint x="220" y="120" as="sourcePoint" />
            <mxPoint x="450" y="170" as="targetPoint" />
          </mxGeometry>
        </mxCell>
        <mxCell id="LPedVDwC0ZXYi0vRmJ3a-27" value="" style="endArrow=classic;html=1;rounded=0;entryX=0;entryY=0.5;entryDx=0;entryDy=0;" edge="1" parent="1" source="LPedVDwC0ZXYi0vRmJ3a-4" target="LPedVDwC0ZXYi0vRmJ3a-25">
          <mxGeometry width="50" height="50" relative="1" as="geometry">
            <mxPoint x="230" y="130" as="sourcePoint" />
            <mxPoint x="350" y="240" as="targetPoint" />
          </mxGeometry>
        </mxCell>
        <mxCell id="LPedVDwC0ZXYi0vRmJ3a-28" value="" style="endArrow=classic;html=1;rounded=0;entryX=1;entryY=0.5;entryDx=0;entryDy=0;" edge="1" parent="1" source="LPedVDwC0ZXYi0vRmJ3a-12" target="LPedVDwC0ZXYi0vRmJ3a-25">
          <mxGeometry width="50" height="50" relative="1" as="geometry">
            <mxPoint x="240" y="231" as="sourcePoint" />
            <mxPoint x="350" y="240" as="targetPoint" />
          </mxGeometry>
        </mxCell>
        <mxCell id="LPedVDwC0ZXYi0vRmJ3a-29" value="Configurar Notificaciones" style="ellipse;whiteSpace=wrap;html=1;" vertex="1" parent="1">
          <mxGeometry x="285" y="330" width="130" height="40" as="geometry" />
        </mxCell>
        <mxCell id="LPedVDwC0ZXYi0vRmJ3a-30" value="Visualizar Información de Habitación" style="ellipse;whiteSpace=wrap;html=1;" vertex="1" parent="1">
          <mxGeometry x="284" y="390" width="130" height="40" as="geometry" />
        </mxCell>
        <mxCell id="LPedVDwC0ZXYi0vRmJ3a-32" value="" style="endArrow=classic;html=1;rounded=0;" edge="1" parent="1" source="LPedVDwC0ZXYi0vRmJ3a-2" target="LPedVDwC0ZXYi0vRmJ3a-29">
          <mxGeometry width="50" height="50" relative="1" as="geometry">
            <mxPoint x="400" y="320" as="sourcePoint" />
            <mxPoint x="450" y="270" as="targetPoint" />
          </mxGeometry>
        </mxCell>
        <mxCell id="LPedVDwC0ZXYi0vRmJ3a-33" value="" style="endArrow=classic;html=1;rounded=0;entryX=0.033;entryY=0.278;entryDx=0;entryDy=0;entryPerimeter=0;" edge="1" parent="1" source="LPedVDwC0ZXYi0vRmJ3a-2" target="LPedVDwC0ZXYi0vRmJ3a-30">
          <mxGeometry width="50" height="50" relative="1" as="geometry">
            <mxPoint x="400" y="320" as="sourcePoint" />
            <mxPoint x="450" y="270" as="targetPoint" />
          </mxGeometry>
        </mxCell>
        <mxCell id="LPedVDwC0ZXYi0vRmJ3a-35" value="" style="endArrow=classic;html=1;rounded=0;entryX=1;entryY=0.5;entryDx=0;entryDy=0;" edge="1" parent="1" source="LPedVDwC0ZXYi0vRmJ3a-12" target="LPedVDwC0ZXYi0vRmJ3a-10">
          <mxGeometry width="50" height="50" relative="1" as="geometry">
            <mxPoint x="330" y="260" as="sourcePoint" />
            <mxPoint x="380" y="210" as="targetPoint" />
          </mxGeometry>
        </mxCell>
        <mxCell id="LPedVDwC0ZXYi0vRmJ3a-36" value="DIAGRAMA DE CASOS DE USO GENERAL" style="text;html=1;whiteSpace=wrap;strokeColor=none;fillColor=none;align=center;verticalAlign=middle;rounded=0;" vertex="1" parent="1">
          <mxGeometry x="285" y="40" width="290" height="30" as="geometry" />
        </mxCell>
      </root>
    </mxGraphModel>
  </diagram>
</mxfile>
